<?xml version="1.0" encoding="UTF-8"?>
<svg id="Capa_1" data-name="Capa 1" xmlns="http://www.w3.org/2000/svg" viewBox="0 0 1080 408.84">
  <defs>
    <style>
      .cls-1 {
        fill: #001a6f;
      }

      .cls-2 {
        fill: #97d600;
      }
    </style>
  </defs>
  <path class="cls-2" d="M852.17,3.66c-7.74-2.72-17.93-3.44-30.43,1.62,5.59,5.4,10.77,12.93,14.81,23.37,1.01-.18,1.98-.28,2.9-.28,1.38,0,2.66.2,3.83.62,20.81,7.31,26.97,86.51-10.76,193.99-17.23,49.07-39.75,92.78-63.42,123.09-11.76,15.05-22.04,24.48-30.4,29.82-10.9,12.6-21.63,22.2-32.16,28.77,1.42.71,2.84,1.3,4.23,1.79,3.65,1.28,7.84,2.12,12.56,2.12,16.24,0,38.75-9.93,66.92-45.98,25.42-32.54,49.43-78.97,67.59-130.72h0c18.17-51.75,28.45-103,28.94-144.29.71-59.06-18.44-78.24-34.62-83.92Z"/>
  <path class="cls-2" d="M802.19,2.39c-16.19-5.69-43.11-2.69-79.48,43.86-8.7,11.13-17.22,23.92-25.4,37.96,9.58-2.54,19.63-3.92,30-3.92,1.35,0,2.7.03,4.04.08,23.05-34.67,45.01-53.28,58.12-53.28,1.38,0,2.66.2,3.83.62,20.81,7.31,26.97,86.51-10.76,193.99-17.23,49.07-39.75,92.78-63.42,123.09-23.72,30.36-41.45,37.86-49.43,35.06-7.98-2.8-17.13-19.74-16.67-58.27.12-10.31.95-21.35,2.37-32.9-2.45-1.93-4.83-3.94-7.12-6.06-6.09-5.15-11.63-10.93-16.53-17.24-3.44,19.88-5.35,38.74-5.56,55.87-.71,59.06,18.44,78.24,34.62,83.92,3.65,1.28,7.84,2.12,12.56,2.12,16.24,0,38.75-9.93,66.92-45.98,25.42-32.54,49.43-78.97,67.59-130.72h0c18.17-51.75,28.45-103,28.94-144.29.71-59.06-18.44-78.24-34.62-83.92Z"/>
  <path class="cls-2" d="M775.5,90.73c8.29-13.37,16.53-24.71,24.35-33.9-2.48-14.21-6.69-20.62-9.23-21.52-.3-.11-.69-.16-1.16-.16-2.02,0-5.31,1.03-9.7,3.72-2.32,2.7-4.68,5.58-7.08,8.65-8.04,10.3-15.94,22.03-23.56,34.84,9.22,1.75,18.06,4.58,26.38,8.36Z"/>
  <path class="cls-2" d="M702.99,322.86c.05-3.81.21-7.75.44-11.75-9.21-1.92-18.02-4.92-26.29-8.87-.56,6.98-.91,13.78-.99,20.3-.24,19.87,1.78,35.21,5.16,47.06,5.52-2.97,13.37-8.83,23.23-19.88-1.09-7.45-1.68-16.34-1.55-26.85Z"/>
  <path class="cls-1" d="M764.54,149.42c-10.29,2.93-21.06,4.6-32.05,4.97v37.92h41.25c-.54-14.85-3.62-29.28-9.2-42.89Z"/>
  <path class="cls-1" d="M735.82,93.75l-.73.59c14.64,12.33,26.2,27.15,34.41,44.08,10.41-3.67,20.15-8.57,28.97-14.62l1.49-1.13c-17.34-16.86-40.05-27.09-64.14-28.92Z"/>
  <path class="cls-1" d="M732.49,104.02v41.37c9.66-.34,19.17-1.77,28.29-4.26-6.98-14.03-16.48-26.5-28.29-37.11Z"/>
  <path class="cls-1" d="M720.18,93.75c-24.09,1.83-46.83,12.1-64.21,28.97l1.57,1.07c8.82,6.05,18.58,10.97,28.97,14.62,8.2-16.93,19.77-31.75,34.41-44.08l-.75-.59Z"/>
  <path class="cls-1" d="M695.23,141.14c9.14,2.49,18.65,3.92,28.27,4.26v-41.37c-11.78,10.58-21.28,23.07-28.27,37.11Z"/>
  <path class="cls-1" d="M673.31,201.3h-48.57c.97,22.42,8.97,43.41,23.19,60.83l2.38-1.77c9.56-6.84,20.11-12.38,31.39-16.55-5.08-13.58-7.91-27.86-8.39-42.5Z"/>
  <path class="cls-1" d="M652.48,131.21l-2.74-1.84c-15.14,17.56-24,39.83-25,62.96h48.57c.52-15.91,3.74-31.24,9.57-45.67-10.93-3.92-21.17-9.11-30.4-15.44Z"/>
  <path class="cls-1" d="M691.47,149.42c-5.58,13.62-8.68,28.04-9.2,42.89h41.23v-37.92c-10.97-.38-21.74-2.04-32.03-4.97Z"/>
  <path class="cls-1" d="M685.14,252.09c-10.65,3.9-20.58,9.13-29.53,15.52l-1.66,1.23c17.41,17.9,40.55,28.87,65.3,30.96l1.25-.89c-15.25-12.99-27.15-28.72-35.36-46.81Z"/>
  <path class="cls-1" d="M682.28,201.3c.5,13.67,3.17,27,7.95,39.64,10.7-3.15,21.89-4.92,33.29-5.31v-34.32h-41.23Z"/>
  <path class="cls-1" d="M693.71,249.3c7.14,15.37,17.14,28.9,29.8,40.3v-44.99c-10.16.36-20.19,1.93-29.8,4.69Z"/>
  <path class="cls-1" d="M732.49,201.3v34.32c11.42.39,22.62,2.17,33.32,5.31,4.76-12.67,7.43-25.98,7.93-39.64h-41.25Z"/>
  <path class="cls-1" d="M732.49,244.61v45.01c12.69-11.4,22.71-24.95,29.83-40.32-9.61-2.76-19.63-4.31-29.83-4.69Z"/>
  <path class="cls-1" d="M44.87,102.55h120.98c3,0,4.5,1.28,4.5,3.84,0,.35-.09.97-.27,1.85l-6.88,32.56c-.8,3.71-3.04,5.56-6.75,5.56h-77.44l-8.34,39.18h56.79c3.09,0,4.63,1.28,4.63,3.84,0,.35-.09.97-.27,1.85l-6.49,30.84c-.79,3.71-3.04,5.56-6.75,5.56h-56.79l-12.44,58.11c-.8,3.71-3,5.56-6.62,5.56H4.77c-3.18,0-4.77-1.28-4.77-3.84,0-.26.09-.84.27-1.72L37.99,108.24c.79-3.79,3.09-5.69,6.88-5.69Z"/>
  <path class="cls-1" d="M142.3,108.24c-.17-.44-.26-1.01-.26-1.72,0-1.23.46-2.21,1.39-2.91.93-.71,2.18-1.06,3.77-1.06h38.92c1.77,0,3.09.44,3.97,1.32.88.88,1.63,2.34,2.25,4.37l18.66,61.42,43.55-61.42c1.41-2.03,2.8-3.48,4.17-4.37,1.37-.88,2.93-1.32,4.7-1.32h46.07c2.47,0,3.7.79,3.7,2.38,0,.97-.49,2.07-1.45,3.31l-82.86,105.89-15.22,71.61c-.79,3.71-3,5.56-6.62,5.56h-37.99c-3.18,0-4.77-1.28-4.77-3.84,0-.26.09-.84.27-1.72l15.22-71.35-37.46-106.16Z"/>
  <path class="cls-1" d="M307.75,104.27c1.19-1.14,2.67-1.72,4.43-1.72h81.67c10.24,0,19.15,2.38,26.74,7.15,7.59,4.77,13.41,11.12,17.47,19.06,4.06,7.94,6.09,16.64,6.09,26.08,0,3.97-.31,7.68-.93,11.12-2.03,11.65-6.86,21.97-14.49,30.97-7.63,9-16.84,16.02-27.6,21.05l21.97,67.77c.17.71.27,1.19.27,1.46,0,1.15-.4,2.12-1.19,2.91-.79.79-1.9,1.19-3.31,1.19h-41.83c-1.77,0-3.03-.35-3.77-1.06-.75-.71-1.43-2.12-2.05-4.24l-17.87-57.45h-24.49l-12.18,57.18c-.79,3.71-3,5.56-6.62,5.56h-37.99c-3.09,0-4.63-1.24-4.63-3.71,0-.35.08-.97.26-1.85l37.73-177.51c.35-1.5,1.13-2.82,2.32-3.97ZM337.6,187.93h29.52c4.32,0,8.43-1.08,12.31-3.24,3.88-2.16,7.17-5.01,9.86-8.54,2.69-3.53,4.44-7.23,5.23-11.12.35-1.5.53-3.22.53-5.16,0-5.03-1.48-9.29-4.43-12.77-2.96-3.49-7.13-5.23-12.51-5.23h-30.84l-9.66,46.06Z"/>
  <path class="cls-1" d="M531.23,104.07c1.24-1.01,2.65-1.52,4.24-1.52h37.99c3,0,4.5,1.28,4.5,3.84,0,.35-.09.97-.27,1.85l-29.25,138.06h70.42c3.09,0,4.63,1.24,4.63,3.71,0,.35-.09.97-.27,1.85l-7.28,33.89c-.8,3.71-3,5.56-6.62,5.56h-113.97c-3.09,0-4.63-1.24-4.63-3.71,0-.35.08-.97.26-1.85l37.73-177.51c.44-1.77,1.28-3.15,2.51-4.17Z"/>
  <path class="cls-1" d="M910,102.55h37.99c3,0,4.5,1.28,4.5,3.84,0,.35-.09.97-.27,1.85l-37.72,177.51c-.8,3.71-3,5.56-6.62,5.56h-37.99c-3.18,0-4.77-1.28-4.77-3.84,0-.26.09-.84.27-1.72l37.73-177.51c.79-3.79,3.09-5.69,6.88-5.69Z"/>
  <path class="cls-1" d="M916.72,258.92c0-1.9,1.16-3.79,3.47-5.69l23.9-20.85c1.51-1.26,2.98-1.9,4.4-1.9,1.69,0,3.43,1,5.21,2.98,3.83,4.06,7.23,7.43,10.22,10.09,2.98,2.67,6.56,5.03,10.74,7.11,4.19,2.08,8.68,3.11,13.48,3.11,14.87,0,23.63-6.05,26.3-18.15.09-.45.13-1.13.13-2.03,0-4.15-2.09-7.54-6.27-10.16-4.19-2.62-9.57-5.19-16.15-7.72-17-6.5-29.73-13.92-38.19-22.28-8.46-8.35-12.68-18.3-12.68-29.86,0-3.16.44-7,1.33-11.51,2.31-10.74,6.81-20.15,13.48-28.24,6.68-8.08,15.29-14.31,25.83-18.69,10.55-4.38,22.59-6.57,36.12-6.57,11.39,0,22.61,2.48,33.64,7.45,11.04,4.97,19.89,11.38,26.57,19.23,1.16,1.45,1.73,2.89,1.73,4.33,0,2.44-1.51,4.97-4.54,7.58l-20.69,19.37c-1.69,1.35-3.21,2.03-4.54,2.03-1.87,0-3.87-1.17-6.01-3.52-1.69-1.98-4.21-4.02-7.54-6.09-3.34-2.08-6.79-3.88-10.35-5.42-3.3-1.26-7.34-1.9-12.15-1.9-5.52,0-10.43,1.04-14.75,3.11-4.32,2.08-6.97,5.37-7.95,9.89-.18,1.08-.27,1.85-.27,2.3,0,2.53,1,4.76,3.01,6.7,2,1.94,4.76,3.7,8.28,5.28,3.51,1.58,8.39,3.45,14.62,5.62,10.59,3.88,19.4,8.01,26.43,12.39,7.03,4.38,12.5,9.64,16.42,15.78,3.91,6.14,5.87,13.5,5.87,22.07,0,4.6-.49,9.16-1.47,13.68-2.58,12.55-7.59,23.29-15.02,32.23-7.43,8.94-16.82,15.76-28.17,20.45-11.35,4.69-24.14,7.04-38.39,7.04-8.45,0-16.71-1.49-24.76-4.47-8.06-2.98-15.4-7-22.03-12.05-6.63-5.06-12.22-10.7-16.76-16.93-1.69-2.44-2.53-4.38-2.53-5.82Z"/>
  <path class="cls-1" d="M782.7,192.31h.89c5.81-19.59,10.3-38.76,13.38-56.92-7.48,4.47-15.47,8.25-23.85,11.25,5.83,14.46,9.05,29.82,9.57,45.66Z"/>
</svg>