<?xml version="1.0" encoding="UTF-8"?>
<svg id="Capa_1" data-name="Capa 1" xmlns="http://www.w3.org/2000/svg" viewBox="0 0 95 100">
  <defs>
    <style>
      .cls-1 {
        fill: #97d600;
      }
    </style>
  </defs>
  <path class="cls-1" d="M71.62,2.5c1.59.36,3.21.59,4.78,1.06,8.28,2.48,15.05,9.25,17.53,17.53.47,1.57.7,3.19,1.06,4.78v48.24c-1.53,12.41-11.51,22.29-24.02,23.38H23.85C11.3,96.3,1.2,86.19,0,73.65V26.52C.79,14.5,11.35,3.55,23.38,2.5h48.24ZM24.27,11.09c-8.44.97-15.09,7.87-15.74,16.36v45.29c.78,8.54,7.53,15.35,16.06,16.22h45.65c8.54-.77,15.35-7.52,16.22-16.05V27.26c-.76-8.48-7.43-15.27-15.88-16.2l-46.3.03Z"/>
  <path class="cls-1" d="M64.88,32.62c13.01,13.01,7.39,35.51-10.14,40.85-18.93,5.76-36.65-12.13-30.62-30.99,5.54-17.34,27.83-22.79,40.76-9.85ZM45.8,34.09c-12.6,1.23-18.68,16.45-10.53,26.19,7.01,8.37,20.54,7.27,26-2.19,6.59-11.42-2.43-25.28-15.47-24Z"/>
  <path class="cls-1" d="M68.53,28.97c-5.84-5.83,3.34-14.77,9.02-8.75,5.63,5.97-3.32,14.45-9.02,8.75Z"/>
</svg>