<?xml version="1.0" encoding="UTF-8"?>
<svg id="Capa_1" data-name="Capa 1" xmlns="http://www.w3.org/2000/svg" viewBox="0 0 95 100">
  <defs>
    <style>
      .cls-1 {
        fill: #97d600;
      }
    </style>
  </defs>
  <path class="cls-1" d="M33.01,99.93c-10.93-.93-21.54-8.78-26.16-18.58-10.17-21.58,5.28-46.34,28.98-46.93,1.68-.04,3.35.89,3.59,2.66l-.07,16.86c-.78,2.58-2.86,2.01-4.84,2.38-9.85,1.81-12.52,14.82-4.15,20.23,7.68,4.97,17.44-.89,17.27-9.84V2.55c.14-1.27,1.33-2.41,2.61-2.44,5.21.39,11.07-.48,16.2,0,3.48.33,2.63,4.14,3.11,6.64,1.6,8.45,8.5,14.01,16.8,15.17.75.11,1.52-.06,2.27.07,1.33.23,2.28,1.29,2.49,2.58-.52,5.12.68,11.6-.02,16.56-.4,2.83-3.58,2.57-5.73,2.45-5.59-.29-11.06-2.17-16.08-4.48-.12,10.55.26,21.13-.22,31.65-1.38,14.78-14.35,27.96-29.22,29.17-1.83.15-4.99.16-6.82,0ZM63.43,5.96h-9.94v63.46c0,.5-.54,2.37-.73,2.98-3.57,11.63-18.35,15.84-27.54,7.75-10.85-9.54-5.76-27.1,8.19-29.73v-9.75c-20.12,2.37-30.71,25.6-18.6,42.28,14.8,20.38,46.89,10.76,48.42-14.31.7-11.51-.51-23.71,0-35.3,1.65-5.53,5.64-1.37,8.58.21,4.15,2.22,8.59,3.45,13.26,3.99v-9.75c-11.17-1.36-20.51-10.59-21.64-21.84Z"/>
</svg>