<?xml version="1.0" encoding="UTF-8"?>
<svg id="Capa_1" data-name="Capa 1" xmlns="http://www.w3.org/2000/svg" viewBox="0 0 95 100">
  <defs>
    <style>
      .cls-1 {
        fill: #fff;
      }
    </style>
  </defs>
  <path class="cls-1" d="M0,97.67l6.69-24.34C-12.68,38.7,15.49-2.94,55.01,2.88c20.54,3.03,36.95,20.01,39.58,40.56,4.91,38.3-35.61,66.02-69.49,47.7L0,97.67ZM11.7,86.16l14.58-3.68c18.51,11.76,42.82,6.47,54.53-12.01,14.82-23.38.93-54.83-26.23-59.43C20.07,5.19-3.91,43.2,15.47,71.99l-3.77,14.17Z"/>
  <path class="cls-1" d="M30.7,27.7c.94-.13,2.57-.03,3.51.16s1.32,1.04,1.74,1.83c1.11,2.13,2.94,6.53,3.69,8.81,1.15,3.52-3.71,5.88-3.71,7.69,0,1.05,3.75,5.86,4.65,6.85,2.3,2.55,5.57,5.06,8.63,6.65.95.49,3.74,1.85,4.66,1.68,1.05-.2,3.65-4.2,4.57-5.16,1.49-1.56,2.03-.95,3.81-.23,1.2.49,8.81,4.1,9.2,4.69.78,1.17-.04,4.51-.57,5.8-1.31,3.17-5.95,5.59-9.25,5.83-6.4.45-14.88-3.5-20.01-7.19-6.78-4.87-17.58-16.78-17.99-25.46-.19-4.03,2.59-11.33,7.09-11.95Z"/>
</svg>